<svg viewBox="0 0 16.6667 13.3333" fill="none" xmlns="http://www.w3.org/2000/svg" xmlns:xlink="http://www.w3.org/1999/xlink" x="0" y="0"><g id="Group">
<path id="Vector" d="M16.6663,2.9467v7.89c0,0.63 -0.243,1.25 -0.681,1.71c-0.437,0.47 -1.035,0.74 -1.672,0.78l-0.147,0.01h-11.666c-0.638,0 -1.252,-0.25 -1.716,-0.68c-0.463,-0.44 -0.743,-1.04 -0.78,-1.68l-0.004,-0.14v-7.89l7.871,5.25l0.096,0.05c0.114,0.06 0.239,0.09 0.366,0.09c0.127,0 0.252,-0.03 0.366,-0.09l0.097,-0.05z" fill="currentColor"/>
<path id="Vector_2" d="M14.1663,-0.0033c0.9,0 1.69,0.48 2.13,1.19l-7.963,5.31l-7.962,-5.31c0.209,-0.34 0.496,-0.62 0.837,-0.83c0.341,-0.2 0.727,-0.32 1.124,-0.35l0.168,-0.01z" fill="currentColor"/>
</g></svg>