<svg viewBox="0 0 14.9698 14.9697" fill="none" xmlns="http://www.w3.org/2000/svg" xmlns:xlink="http://www.w3.org/1999/xlink" x="0" y="0"><path id="Vector_3" d="M13.5031,10.2117l-2.117,-0.25c-0.249,-0.02 -0.501,0 -0.738,0.09c-0.236,0.08 -0.451,0.21 -0.628,0.39l-1.534,1.53c-2.365,-1.2 -4.288,-3.12 -5.491,-5.49l1.541,-1.54c0.359,-0.36 0.534,-0.86 0.475,-1.37l-0.241,-2.1c-0.047,-0.4 -0.242,-0.78 -0.548,-1.05c-0.306,-0.27 -0.701,-0.42 -1.111,-0.42h-1.441c-0.942,0 -1.725,0.78 -1.667,1.72c0.442,7.12 6.133,12.8 13.242,13.24c0.941,0.06 1.725,-0.72 1.725,-1.66v-1.44c0.008,-0.85 -0.625,-1.55 -1.467,-1.65z" fill="currentColor"/></svg>