<svg viewBox="0 0 95.06 21.59" fill="none" xmlns="http://www.w3.org/2000/svg" xmlns:xlink="http://www.w3.org/1999/xlink" id="7d1f4c6c" x="0" y="0"><g id="Accueil - PharmaLoc" data-node-id="2:2" clip-path="url(#clip0_2_2)"><g id="Footer" data-node-id="60:55"><g id="formkit:instagram" data-node-id="53:43">
<path id="Vector_4" data-node-id="53:44" d="M10.56,7.68c-1.85,0 -3.35,1.51 -3.35,3.35c0,1.84 1.51,3.35 3.35,3.35c1.84,0 3.35,-1.51 3.35,-3.35c0,-1.84 -1.51,-3.35 -3.35,-3.35zM20.62,11.03c0,-1.39 0,-2.76 -0.07,-4.15c-0.07,-1.61 -0.44,-3.05 -1.62,-4.22c-1.18,-1.17 -2.61,-1.55 -4.22,-1.62c-1.39,-0.07 -2.76,-0.07 -4.15,-0.07c-1.39,0 -2.76,0 -4.15,0.07c-1.61,0.07 -3.05,0.45 -4.22,1.62c-1.17,1.18 -1.55,2.61 -1.62,4.22c-0.07,1.39 -0.07,2.76 -0.07,4.15c0,1.39 0,2.76 0.07,4.15c0.07,1.61 0.45,3.05 1.62,4.22c1.18,1.18 2.61,1.55 4.22,1.62c1.39,0.07 2.76,0.07 4.15,0.07c1.39,0 2.76,0 4.15,-0.07c1.61,-0.07 3.05,-0.44 4.22,-1.62c1.18,-1.18 1.55,-2.61 1.62,-4.22c0.09,-1.38 0.07,-2.76 0.07,-4.15zM10.56,16.19c-2.86,0 -5.16,-2.3 -5.16,-5.16c0,-2.86 2.3,-5.16 5.16,-5.16c2.86,0 5.16,2.3 5.16,5.16c0,2.86 -2.3,5.16 -5.16,5.16zM15.94,6.86c-0.67,0 -1.21,-0.53 -1.21,-1.21c0,-0.67 0.53,-1.2 1.21,-1.2c0.67,0 1.2,0.53 1.2,1.2c0.01,0.16 -0.02,0.32 -0.08,0.46c-0.06,0.15 -0.15,0.28 -0.26,0.39c-0.11,0.11 -0.24,0.2 -0.39,0.26c-0.15,0.06 -0.3,0.09 -0.46,0.09z" fill="white"/>
</g><g id="raphael:facebook" data-node-id="53:45">
<path id="Vector_5" data-node-id="53:46" d="M41.44,1.28h-13.76c-1.58,0 -2.87,1.29 -2.87,2.87v13.76c0,1.58 1.29,2.87 2.87,2.87h13.76c1.58,0 2.87,-1.29 2.87,-2.87v-13.76c0,-1.58 -1.29,-2.87 -2.87,-2.87zM41.25,11.69h-2.31v8.37h-3.47v-8.37h-1.73v-2.89h1.73v-1.73c0,-2.35 0.98,-3.76 3.76,-3.76h2.31v2.89h-1.44c-1.08,0 -1.15,0.4 -1.15,1.16l-0.01,1.44h2.62z" fill="white"/>
</g><g id="Group 10" data-node-id="53:61">
<g id="mingcute:linkedin-fill" data-node-id="53:47">
<g id="Group_2" data-node-id="53:48">
<path id="Vector_6" data-node-id="53:50" fill-rule="evenodd" clip-rule="evenodd" d="M65.49,1.03c0.85,0 1.67,0.34 2.27,0.94c0.6,0.6 0.94,1.42 0.94,2.27v12.86c0,0.85 -0.34,1.67 -0.94,2.27c-0.6,0.61 -1.42,0.95 -2.27,0.95h-12.86c-0.85,0 -1.67,-0.34 -2.27,-0.95c-0.6,-0.6 -0.94,-1.42 -0.94,-2.27v-12.86c0,-0.85 0.34,-1.67 0.94,-2.27c0.6,-0.6 1.42,-0.94 2.27,-0.94zM54.77,8.53c-0.28,0 -0.55,0.11 -0.75,0.31c-0.2,0.2 -0.32,0.48 -0.32,0.76v5.36c0,0.28 0.12,0.56 0.32,0.76c0.2,0.2 0.47,0.31 0.75,0.31c0.29,0 0.56,-0.11 0.76,-0.31c0.2,-0.2 0.32,-0.48 0.32,-0.76v-5.36c0,-0.28 -0.12,-0.56 -0.32,-0.76c-0.2,-0.2 -0.47,-0.31 -0.76,-0.31zM57.99,7.46c-0.29,0 -0.56,0.11 -0.76,0.31c-0.2,0.2 -0.31,0.48 -0.31,0.76v6.43c0,0.28 0.11,0.56 0.31,0.76c0.2,0.2 0.47,0.31 0.76,0.31c0.28,0 0.56,-0.11 0.76,-0.31c0.2,-0.2 0.31,-0.48 0.31,-0.76v-3.92c0.33,-0.37 0.88,-0.8 1.49,-1.07c0.36,-0.15 0.9,-0.21 1.27,-0.09c0.12,0.03 0.23,0.1 0.31,0.2c0.06,0.07 0.14,0.24 0.14,0.59v4.29c0,0.28 0.12,0.56 0.32,0.76c0.2,0.2 0.47,0.31 0.76,0.31c0.28,0 0.55,-0.11 0.75,-0.31c0.2,-0.2 0.32,-0.48 0.32,-0.76v-4.29c0,-0.72 -0.19,-1.35 -0.56,-1.87c-0.35,-0.46 -0.84,-0.8 -1.4,-0.97c-0.96,-0.3 -2.04,-0.13 -2.75,0.17c-0.23,0.1 -0.45,0.21 -0.67,0.34c-0.04,-0.25 -0.17,-0.47 -0.36,-0.63c-0.2,-0.16 -0.44,-0.25 -0.69,-0.25zM54.77,5.32c-0.28,0 -0.55,0.11 -0.75,0.31c-0.2,0.2 -0.32,0.47 -0.32,0.76c0,0.28 0.12,0.55 0.32,0.75c0.2,0.21 0.47,0.32 0.75,0.32c0.29,0 0.56,-0.11 0.76,-0.32c0.2,-0.2 0.32,-0.47 0.32,-0.75c0,-0.29 -0.12,-0.56 -0.32,-0.76c-0.2,-0.2 -0.47,-0.31 -0.76,-0.31z" fill="black"/>
</g>
<rect id="Rectangle 16" data-node-id="53:55" x="49.059999999999945" y="0.6700000000000728" width="20" height="20" rx="3" fill="white"/>
<g id="bi:tiktok" data-node-id="53:53" clip-path="url(#clip1_2_2)">
<path id="Vector_7" data-node-id="53:54" d="M59.33,3.53h1.94c0.14,0.7 0.53,1.59 1.22,2.47c0.66,0.86 1.55,1.46 2.73,1.46v1.96c-1.72,0 -3.01,-0.8 -3.93,-1.79v6.7c0,0.97 -0.29,1.92 -0.83,2.73c-0.54,0.81 -1.3,1.44 -2.2,1.81c-0.9,0.37 -1.88,0.47 -2.84,0.28c-0.95,-0.19 -1.82,-0.66 -2.51,-1.34c-0.69,-0.69 -1.16,-1.57 -1.34,-2.52c-0.19,-0.95 -0.1,-1.94 0.27,-2.84c0.38,-0.89 1.01,-1.66 1.81,-2.2c0.81,-0.54 1.76,-0.83 2.73,-0.83v1.97c-0.58,0 -1.15,0.17 -1.64,0.49c-0.48,0.33 -0.86,0.79 -1.08,1.33c-0.22,0.53 -0.28,1.13 -0.17,1.7c0.12,0.57 0.4,1.09 0.81,1.51c0.41,0.41 0.94,0.69 1.51,0.8c0.57,0.12 1.16,0.06 1.7,-0.16c0.54,-0.23 1,-0.6 1.32,-1.09c0.33,-0.48 0.5,-1.05 0.5,-1.64z" fill="#0D5154"/>
</g>
</g>
</g><g id="mingcute:linkedin-fill_2" data-node-id="53:56" clip-path="url(#clip2_2_2)">
<g id="Group_3" data-node-id="53:57">
<path id="Vector_8" data-node-id="53:59" fill-rule="evenodd" clip-rule="evenodd" d="M91.06,0.5c0.93,0 1.82,0.36 2.47,0.99c0.66,0.63 1.03,1.49 1.03,2.39v13.5c0,0.89 -0.37,1.75 -1.03,2.38c-0.65,0.64 -1.54,0.99 -2.47,0.99h-14c-0.93,0 -1.82,-0.35 -2.47,-0.99c-0.66,-0.63 -1.03,-1.49 -1.03,-2.38v-13.5c0,-0.9 0.37,-1.76 1.03,-2.39c0.65,-0.63 1.54,-0.99 2.47,-0.99zM79.39,8.38c-0.31,0 -0.6,0.11 -0.82,0.33c-0.22,0.21 -0.34,0.49 -0.34,0.79v5.63c0,0.29 0.12,0.58 0.34,0.79c0.22,0.21 0.51,0.33 0.82,0.33c0.31,0 0.61,-0.12 0.83,-0.33c0.22,-0.21 0.34,-0.5 0.34,-0.79v-5.63c0,-0.3 -0.12,-0.58 -0.34,-0.79c-0.22,-0.22 -0.52,-0.33 -0.83,-0.33zM82.89,7.25c-0.31,0 -0.6,0.12 -0.82,0.33c-0.22,0.21 -0.34,0.5 -0.34,0.8v6.75c0,0.29 0.12,0.58 0.34,0.79c0.22,0.21 0.51,0.33 0.82,0.33c0.31,0 0.61,-0.12 0.83,-0.33c0.22,-0.21 0.34,-0.5 0.34,-0.79v-4.12c0.36,-0.39 0.96,-0.84 1.63,-1.12c0.38,-0.16 0.97,-0.22 1.37,-0.1c0.14,0.03 0.26,0.11 0.35,0.21c0.06,0.08 0.15,0.26 0.15,0.63v4.5c0,0.29 0.12,0.58 0.34,0.79c0.22,0.21 0.52,0.33 0.83,0.33c0.31,0 0.6,-0.12 0.82,-0.33c0.22,-0.21 0.34,-0.5 0.34,-0.79v-4.5c0,-0.76 -0.2,-1.43 -0.61,-1.97c-0.38,-0.48 -0.91,-0.84 -1.52,-1.02c-1.05,-0.32 -2.21,-0.14 -2.99,0.18c-0.25,0.11 -0.49,0.22 -0.73,0.35c-0.05,-0.25 -0.19,-0.49 -0.4,-0.66c-0.21,-0.17 -0.47,-0.26 -0.75,-0.26zM79.39,5c-0.31,0 -0.6,0.12 -0.82,0.33c-0.22,0.21 -0.34,0.5 -0.34,0.8c0,0.29 0.12,0.58 0.34,0.79c0.22,0.21 0.51,0.33 0.82,0.33c0.31,0 0.61,-0.12 0.83,-0.33c0.22,-0.21 0.34,-0.5 0.34,-0.79c0,-0.3 -0.12,-0.59 -0.34,-0.8c-0.22,-0.21 -0.52,-0.33 -0.83,-0.33z" fill="white"/>
</g>
</g></g></g><defs><clipPath id="clip0_2_2">
<rect width="1440" height="3697" fill="white" x="-1075.94" y="-3415.47"/>
</clipPath><clipPath id="clip1_2_2">
<rect width="15.7143" height="15.7143" fill="white" transform="translate(50.49000000000001, 3.5300000000002)"/>
</clipPath><clipPath id="clip2_2_2">
<rect width="28" height="27" fill="white" transform="translate(70.05999999999995, -6.4699999999998)"/>
</clipPath></defs></svg>